<svg id="svg" version="1.1" xmlns="http://www.w3.org/2000/svg" xmlns:xlink="http://www.w3.org/1999/xlink" width="400" height="459" viewBox="0, 0, 400,459"><g id="svgg"><path id="path0" d="M197.859 2.900 C 197.720 4.055,197.605 7.305,197.603 10.121 L 197.600 15.243 195.442 18.161 L 193.284 21.079 184.142 21.320 C 179.114 21.452,173.920 21.754,172.600 21.991 C 171.280 22.227,166.158 23.181,161.218 24.110 C 150.695 26.090,151.700 25.167,151.640 32.900 L 151.600 38.000 115.400 38.000 L 79.200 38.000 79.160 35.100 C 79.139 33.505,79.004 31.218,78.860 30.018 L 78.600 27.836 69.683 26.144 L 60.767 24.451 40.483 24.326 L 20.200 24.200 11.128 25.900 C 6.138 26.835,1.592 27.600,1.025 27.600 L -0.006 27.600 0.112 154.900 C 0.241 295.171,0.027 283.028,2.644 298.200 C 24.533 425.098,166.098 495.039,288.019 439.191 C 347.954 411.737,391.540 352.128,398.683 287.842 C 399.467 280.786,399.853 143.187,399.299 68.201 L 399.000 27.802 396.000 27.337 C 394.350 27.081,390.300 26.362,387.000 25.739 L 381.000 24.605 360.200 24.609 L 339.400 24.613 332.000 25.942 C 327.930 26.674,323.909 27.371,323.065 27.493 C 321.195 27.763,321.270 27.563,320.901 33.200 L 320.600 37.800 284.500 37.902 L 248.400 38.004 248.400 32.584 C 248.400 25.487,248.593 25.699,241.000 24.434 C 237.920 23.920,233.707 23.161,231.638 22.746 C 226.548 21.727,220.277 21.212,212.600 21.183 L 206.200 21.159 204.100 18.214 L 202.000 15.268 202.000 10.493 C 202.000 7.866,201.884 4.611,201.743 3.259 L 201.486 0.800 199.799 0.800 L 198.111 0.800 197.859 2.900 M369.874 66.100 C 371.119 68.037,370.136 273.131,368.830 284.000 C 364.263 322.003,349.392 352.906,322.802 379.649 C 251.992 450.867,132.261 446.504,67.101 370.330 C 48.358 348.420,36.930 323.631,30.712 291.400 L 29.400 284.600 29.296 175.328 L 29.191 66.057 30.096 65.883 C 32.594 65.402,369.564 65.618,369.874 66.100 M215.132 122.293 L 213.263 122.441 214.332 124.721 C 215.942 128.156,215.937 136.654,214.322 140.100 L 213.244 142.400 227.522 142.421 C 235.375 142.433,257.235 142.424,276.100 142.401 L 310.400 142.360 310.400 206.180 L 310.400 270.000 263.050 270.000 C 237.008 270.000,215.156 270.109,214.491 270.242 L 213.282 270.484 214.341 272.742 C 215.942 276.156,215.931 284.666,214.322 288.100 L 213.244 290.400 263.434 290.400 L 313.623 290.400 315.965 289.218 C 318.470 287.953,320.913 285.477,321.901 283.200 C 323.493 279.535,323.536 132.258,321.947 129.111 C 320.981 127.199,318.904 125.129,316.591 123.773 L 314.765 122.703 302.082 122.371 C 289.882 122.052,218.967 121.988,215.132 122.293 M81.222 123.301 C 76.858 125.609,74.709 132.769,77.031 137.260 C 77.385 137.945,80.133 141.326,83.138 144.773 C 111.162 176.930,135.200 205.383,135.200 206.399 C 135.200 207.014,131.577 211.617,125.400 218.848 C 118.275 227.189,93.861 255.530,87.061 263.354 C 77.622 274.215,76.977 275.031,76.447 276.801 C 75.058 281.436,77.442 287.684,81.313 289.558 C 83.501 290.617,125.632 291.053,174.200 290.519 L 204.200 290.190 205.918 289.211 C 211.656 285.942,212.366 276.715,207.218 272.308 L 205.608 270.930 191.138 270.665 C 183.180 270.519,160.769 270.400,141.335 270.400 C 121.901 270.400,106.000 270.258,106.000 270.085 C 106.000 269.912,115.017 259.247,126.037 246.385 C 156.718 210.579,156.572 210.772,156.296 206.200 C 156.039 201.946,154.357 199.294,145.114 188.557 C 142.631 185.674,135.209 177.034,128.620 169.357 C 104.103 140.795,105.935 143.064,107.045 142.638 C 107.415 142.496,129.780 142.264,156.745 142.124 L 205.771 141.867 207.605 140.033 C 212.136 135.502,211.523 126.670,206.470 123.699 L 204.600 122.600 143.794 122.483 L 82.989 122.367 81.222 123.301 M224.800 166.187 C 189.900 171.998,177.310 204.725,200.286 229.911 L 203.172 233.075 195.310 233.348 C 190.985 233.497,187.394 233.673,187.329 233.738 C 187.264 233.803,187.090 236.229,186.944 239.128 L 186.677 244.400 205.938 244.400 L 225.200 244.400 225.200 240.096 L 225.200 235.792 221.900 233.815 C 193.114 216.579,203.135 174.669,235.600 176.521 C 265.049 178.201,270.111 215.998,243.313 234.118 L 240.825 235.800 240.813 240.165 L 240.800 244.529 254.300 244.265 C 261.725 244.120,270.275 244.001,273.300 244.001 L 278.800 244.000 278.800 238.861 L 278.800 233.722 274.300 233.463 C 271.825 233.320,268.113 233.203,266.052 233.202 L 262.303 233.200 264.980 230.362 C 287.271 206.732,277.082 173.548,245.397 166.584 C 241.363 165.697,229.153 165.462,224.800 166.187 M202.554 276.435 C 206.631 279.642,204.491 285.200,199.180 285.200 C 194.760 285.200,193.138 278.850,196.887 276.224 C 198.204 275.302,201.257 275.415,202.554 276.435 M199.514 295.585 C 192.984 295.887,193.628 295.397,193.329 300.294 L 193.086 304.295 183.764 304.480 C 174.511 304.664,174.431 304.673,172.854 305.717 C 169.937 307.647,168.148 311.038,168.669 313.647 L 168.900 314.800 199.807 314.800 C 234.467 314.800,231.537 315.090,230.785 311.731 C 229.454 305.794,227.173 304.712,215.500 304.479 L 206.400 304.298 206.400 300.382 C 206.400 296.240,206.201 295.159,205.457 295.266 C 205.206 295.302,202.531 295.446,199.514 295.585 M152.409 341.130 C 150.805 342.733,150.630 345.202,150.957 361.600 C 151.267 377.127,151.190 376.787,154.400 376.778 C 157.270 376.771,157.125 377.619,157.440 358.968 L 157.722 342.194 156.140 341.097 C 154.163 339.727,153.809 339.730,152.409 341.130 M203.200 340.613 C 197.652 342.152,195.000 345.166,195.000 349.934 C 195.000 355.665,197.096 357.727,205.651 360.416 C 214.738 363.272,216.994 367.343,211.404 370.798 C 207.704 373.084,203.528 371.626,200.365 366.946 C 197.165 362.208,194.142 362.196,194.250 366.921 C 194.557 380.211,218.624 380.467,220.556 367.200 C 221.498 360.729,217.999 357.102,208.200 354.393 C 201.245 352.471,199.171 349.949,202.119 347.001 C 205.212 343.908,209.950 344.582,212.446 348.471 C 215.346 352.991,219.200 353.005,219.200 348.496 C 219.200 342.901,210.468 338.598,203.200 340.613 M238.818 340.420 C 222.153 343.842,220.398 371.633,236.558 376.221 C 244.537 378.486,253.197 374.861,255.053 368.477 C 256.947 361.963,251.662 360.096,249.173 366.400 C 247.185 371.436,241.354 373.255,236.865 370.241 C 229.998 365.628,231.266 348.420,238.654 345.982 C 243.029 344.538,246.008 346.060,249.901 351.731 C 251.876 354.608,253.747 354.785,254.969 352.209 C 257.680 346.496,247.043 338.732,238.818 340.420 M163.067 342.328 C 160.508 345.005,162.730 346.739,169.176 347.095 L 173.130 347.312 173.265 361.245 C 173.416 376.791,173.443 376.933,176.314 376.933 C 179.575 376.933,179.995 374.175,179.999 352.751 L 180.000 347.303 184.463 347.119 C 190.220 346.882,192.280 345.117,190.036 342.344 L 189.271 341.400 176.736 341.271 L 164.200 341.141 163.067 342.328 " stroke="none" fill="#020b14" fill-rule="evenodd"></path><path id="path1" d="M0.000 13.800 L 0.000 27.600 1.028 27.600 C 1.593 27.600,6.138 26.835,11.128 25.900 L 20.200 24.200 40.483 24.326 L 60.767 24.451 69.683 26.144 L 78.600 27.836 78.860 30.018 C 79.004 31.218,79.139 33.505,79.160 35.100 L 79.200 38.000 115.400 38.000 L 151.600 38.000 151.640 32.900 C 151.700 25.167,150.695 26.090,161.218 24.110 C 166.158 23.181,171.280 22.227,172.600 21.991 C 173.920 21.754,179.114 21.452,184.142 21.320 L 193.284 21.079 195.442 18.161 L 197.600 15.243 197.603 10.121 C 197.605 7.305,197.720 4.055,197.859 2.900 L 198.111 0.800 199.799 0.800 L 201.486 0.800 201.743 3.259 C 201.884 4.611,202.000 7.866,202.000 10.493 L 202.000 15.268 204.100 18.214 L 206.200 21.159 212.600 21.183 C 220.277 21.212,226.548 21.727,231.638 22.746 C 233.707 23.161,237.920 23.920,241.000 24.434 C 248.593 25.699,248.400 25.487,248.400 32.584 L 248.400 38.004 284.500 37.902 L 320.600 37.800 320.901 33.200 C 321.270 27.563,321.195 27.763,323.065 27.493 C 323.909 27.371,327.930 26.674,332.000 25.942 L 339.400 24.613 360.200 24.609 L 381.000 24.604 386.800 25.708 C 389.990 26.315,393.950 27.011,395.600 27.255 C 397.250 27.498,398.754 27.838,398.941 28.010 C 399.129 28.182,399.413 81.395,399.573 146.261 L 399.863 264.200 399.931 132.100 L 400.000 0.000 200.000 0.000 L 0.000 0.000 0.000 13.800 M30.096 65.883 L 29.191 66.057 29.296 175.328 L 29.400 284.600 30.712 291.400 C 38.677 332.684,55.917 363.263,85.600 388.756 C 138.640 434.310,215.296 443.379,278.800 411.614 C 329.343 386.332,362.115 339.878,368.830 284.000 C 370.136 273.131,371.119 68.037,369.874 66.100 C 369.564 65.618,32.594 65.402,30.096 65.883 M302.082 122.371 L 314.765 122.703 316.591 123.773 C 318.904 125.129,320.981 127.199,321.947 129.111 C 323.536 132.258,323.493 279.535,321.901 283.200 C 320.913 285.477,318.470 287.953,315.965 289.218 L 313.623 290.400 263.434 290.400 L 213.244 290.400 214.322 288.100 C 215.931 284.666,215.942 276.156,214.341 272.742 L 213.282 270.484 214.491 270.242 C 215.156 270.109,237.008 270.000,263.050 270.000 L 310.400 270.000 310.400 206.180 L 310.400 142.360 276.100 142.401 C 257.235 142.424,235.375 142.433,227.522 142.421 L 213.244 142.400 214.322 140.100 C 215.937 136.654,215.942 128.156,214.332 124.721 L 213.263 122.441 215.132 122.293 C 218.967 121.988,289.882 122.052,302.082 122.371 M206.470 123.699 C 211.523 126.670,212.136 135.502,207.605 140.033 L 205.771 141.867 156.745 142.124 C 129.780 142.264,107.415 142.496,107.045 142.638 C 105.935 143.064,104.103 140.795,128.620 169.357 C 135.209 177.034,142.631 185.674,145.114 188.557 C 154.357 199.294,156.039 201.946,156.296 206.200 C 156.572 210.772,156.718 210.579,126.037 246.385 C 115.017 259.247,106.000 269.912,106.000 270.085 C 106.000 270.258,121.901 270.400,141.335 270.400 C 160.769 270.400,183.180 270.519,191.138 270.665 L 205.608 270.930 207.218 272.308 C 212.366 276.715,211.656 285.942,205.918 289.211 L 204.200 290.190 174.200 290.519 C 125.632 291.053,83.501 290.617,81.313 289.558 C 77.442 287.684,75.058 281.436,76.447 276.801 C 76.977 275.031,77.622 274.215,87.061 263.354 C 93.861 255.530,118.275 227.189,125.400 218.848 C 131.577 211.617,135.200 207.014,135.200 206.399 C 135.200 205.383,111.162 176.930,83.138 144.773 C 80.133 141.326,77.385 137.945,77.031 137.260 C 74.709 132.769,76.858 125.609,81.222 123.301 L 82.989 122.367 143.794 122.483 L 204.600 122.600 206.470 123.699 M245.397 166.584 C 277.082 173.548,287.271 206.732,264.980 230.362 L 262.303 233.200 266.052 233.202 C 268.113 233.203,271.825 233.320,274.300 233.463 L 278.800 233.722 278.800 238.861 L 278.800 244.000 273.300 244.001 C 270.275 244.001,261.725 244.120,254.300 244.265 L 240.800 244.529 240.813 240.165 L 240.825 235.800 243.313 234.118 C 270.111 215.998,265.049 178.201,235.600 176.521 C 203.135 174.669,193.114 216.579,221.900 233.815 L 225.200 235.792 225.200 240.096 L 225.200 244.400 205.938 244.400 L 186.677 244.400 186.944 239.128 C 187.090 236.229,187.264 233.803,187.329 233.738 C 187.394 233.673,190.985 233.497,195.310 233.348 L 203.172 233.075 200.286 229.911 C 177.310 204.725,189.900 171.998,224.800 166.187 C 229.153 165.462,241.363 165.697,245.397 166.584 M399.453 276.500 C 397.243 306.222,392.314 325.173,380.751 348.400 C 350.070 410.032,291.028 450.369,220.800 457.680 L 215.800 458.200 219.200 458.437 C 221.070 458.568,262.515 458.713,311.300 458.759 L 400.000 458.843 400.000 366.222 C 400.000 315.280,399.925 273.600,399.834 273.600 C 399.743 273.600,399.571 274.905,399.453 276.500 M196.887 276.224 C 193.138 278.850,194.760 285.200,199.180 285.200 C 204.491 285.200,206.631 279.642,202.554 276.435 C 201.257 275.415,198.204 275.302,196.887 276.224 M0.000 369.733 L 0.000 458.800 87.900 458.749 C 160.841 458.707,192.596 458.479,183.000 458.068 C 180.045 457.941,170.650 456.757,164.922 455.790 C 76.609 440.880,9.868 371.518,0.780 285.203 C 0.537 282.894,0.262 280.929,0.169 280.836 C 0.076 280.743,0.000 320.747,0.000 369.733 M206.157 295.833 C 206.291 296.181,206.400 298.228,206.400 300.382 L 206.400 304.298 215.500 304.479 C 227.173 304.712,229.454 305.794,230.785 311.731 C 231.537 315.090,234.467 314.800,199.807 314.800 L 168.900 314.800 168.669 313.647 C 168.148 311.038,169.937 307.647,172.854 305.717 C 174.431 304.673,174.511 304.664,183.764 304.480 L 193.086 304.295 193.329 300.294 C 193.628 295.397,192.984 295.887,199.514 295.585 C 202.531 295.446,205.206 295.302,205.457 295.266 C 205.709 295.230,206.024 295.485,206.157 295.833 M156.140 341.097 L 157.722 342.194 157.440 358.968 C 157.125 377.619,157.270 376.771,154.400 376.778 C 151.190 376.787,151.267 377.127,150.957 361.600 C 150.630 345.202,150.805 342.733,152.409 341.130 C 153.809 339.730,154.163 339.727,156.140 341.097 M212.399 340.999 C 217.947 342.957,221.009 348.228,218.218 351.018 C 216.459 352.778,214.716 352.008,212.446 348.471 C 209.950 344.582,205.212 343.908,202.119 347.001 C 199.171 349.949,201.245 352.471,208.200 354.393 C 217.999 357.102,221.498 360.729,220.556 367.200 C 218.624 380.467,194.557 380.211,194.250 366.921 C 194.142 362.196,197.165 362.208,200.365 366.946 C 203.528 371.626,207.704 373.084,211.404 370.798 C 216.994 367.343,214.738 363.272,205.651 360.416 C 197.096 357.727,195.000 355.665,195.000 349.934 C 195.000 342.529,203.851 337.984,212.399 340.999 M246.838 341.178 C 252.676 343.394,256.616 348.738,254.969 352.209 C 253.747 354.785,251.876 354.608,249.901 351.731 C 246.008 346.060,243.029 344.538,238.654 345.982 C 231.266 348.420,229.998 365.628,236.865 370.241 C 241.354 373.255,247.185 371.436,249.173 366.400 C 251.662 360.096,256.947 361.963,255.053 368.477 C 252.332 377.836,235.433 379.945,229.327 371.687 C 218.490 357.029,231.031 335.180,246.838 341.178 M190.036 342.344 C 192.280 345.117,190.220 346.882,184.463 347.119 L 180.000 347.303 179.999 352.751 C 179.995 374.175,179.575 376.933,176.314 376.933 C 173.443 376.933,173.416 376.791,173.265 361.245 L 173.130 347.312 169.176 347.095 C 162.730 346.739,160.508 345.005,163.067 342.328 L 164.200 341.141 176.736 341.271 L 189.271 341.400 190.036 342.344 " stroke="none" fill="#e6e7e7" fill-rule="evenodd"></path></g></svg>